<?xml version="1.0" encoding="utf-8"?>
<!-- Generator: Adobe Illustrator 18.1.0, SVG Export Plug-In . SVG Version: 6.00 Build 0)  -->
<svg version="1.1" id="Layer_1" xmlns="http://www.w3.org/2000/svg" xmlns:xlink="http://www.w3.org/1999/xlink" x="0px" y="0px"
	 viewBox="0 0 1500 1500" enable-background="new 0 0 1500 1500" xml:space="preserve" style="background:white">
<g fill="white">
	<path fill="white" d="M807.5,1218.5c-11.2,0-20.2,8.2-22.3,18.8c15,0.3,29.9,0.8,44.8,1.5C828.5,1227.4,819.2,1218.5,807.5,1218.5z"
		/>
	<path fill="white" d="M677.8,1218.5c-11.9,0-21.5,9.2-22.7,20.8c14.9-0.8,29.9-1.5,45-1.9C698,1226.8,689.1,1218.5,677.8,1218.5z"/>
	<path fill="white" d="M807.5,292c12.8,0,23.1-10.4,23.1-23.2c0-12.8-10.3-23.2-23.1-23.2c-12.8,0-23.2,10.4-23.2,23.2
		C784.3,281.5,794.7,292,807.5,292z"/>
	<path fill="white" d="M919.3,1172.8c12.8,0,23.2-10.4,23.2-23.1c0-12.8-10.3-23.2-23.2-23.2c-12.8,0-23.2,10.4-23.2,23.2
		C896.1,1162.4,906.5,1172.8,919.3,1172.8z"/>
	<path fill="white" d="M919.3,978.2c12.8,0,23.2-10.4,23.2-23.2c0-12.8-10.3-23.2-23.2-23.2c-12.8,0-23.2,10.4-23.2,23.2
		C896.1,967.8,906.5,978.2,919.3,978.2z"/>
	<path fill="white" d="M807.5,389.2c12.8,0,23.1-10.3,23.1-23.1c0-12.8-10.3-23.2-23.1-23.2c-12.8,0-23.2,10.4-23.2,23.2
		C784.3,378.9,794.7,389.2,807.5,389.2z"/>
	<path fill="white" d="M919.3,1075.5c12.8,0,23.2-10.3,23.2-23.2c0-12.8-10.3-23.2-23.2-23.2c-12.8,0-23.2,10.4-23.2,23.2
		C896.1,1065.2,906.5,1075.5,919.3,1075.5z"/>
	<path fill="white" d="M807.5,583.8c12.8,0,23.1-10.3,23.1-23.2c0-12.8-10.3-23.1-23.1-23.1c-12.8,0-23.2,10.3-23.2,23.1
		C784.3,573.5,794.7,583.8,807.5,583.8z"/>
	<path fill="white" d="M807.5,1070.3c12.8,0,23.1-10.3,23.1-23.2c0-12.8-10.3-23.2-23.1-23.2c-12.8,0-23.2,10.4-23.2,23.2
		C784.3,1059.9,794.7,1070.3,807.5,1070.3z"/>
	<path fill="white" d="M807.5,875.7c12.8,0,23.1-10.4,23.1-23.2c0-12.8-10.3-23.2-23.1-23.2c-12.8,0-23.2,10.3-23.2,23.2
		C784.3,865.3,794.7,875.7,807.5,875.7z"/>
	<path fill="white" d="M807.5,972.9c12.8,0,23.1-10.4,23.1-23.2c0-12.8-10.3-23.2-23.1-23.2c-12.8,0-23.2,10.4-23.2,23.2
		C784.3,962.6,794.7,972.9,807.5,972.9z"/>
	<path fill="white" d="M807.5,778.4c12.8,0,23.1-10.4,23.1-23.2c0-12.7-10.3-23.1-23.1-23.1c-12.8,0-23.2,10.4-23.2,23.1
		C784.3,768,794.7,778.4,807.5,778.4z"/>
	<path fill="white" d="M807.5,681.1c12.8,0,23.1-10.3,23.1-23.2c0-12.8-10.3-23.2-23.1-23.2c-12.8,0-23.2,10.4-23.2,23.2
		C784.3,670.7,794.7,681.1,807.5,681.1z"/>
	<path fill="white" d="M919.3,880.9c12.8,0,23.2-10.3,23.2-23.2c0-12.8-10.3-23.2-23.2-23.2c-12.8,0-23.2,10.4-23.2,23.2
		C896.1,870.6,906.5,880.9,919.3,880.9z"/>
	<path fill="white" d="M807.5,486.5c12.8,0,23.1-10.4,23.1-23.2c0-12.8-10.3-23.2-23.1-23.2c-12.8,0-23.2,10.4-23.2,23.2
		C784.3,476.1,794.7,486.5,807.5,486.5z"/>
	<path fill="white" d="M1049,686.3c12.8,0,23.1-10.3,23.1-23.2c0-12.8-10.3-23.2-23.1-23.2c-12.8,0-23.2,10.4-23.2,23.2
		C1025.8,676,1036.2,686.3,1049,686.3z"/>
	<path fill="white" d="M1049,783.6c12.8,0,23.1-10.3,23.1-23.2c0-12.8-10.3-23.1-23.1-23.1c-12.8,0-23.2,10.4-23.2,23.1
		C1025.8,773.3,1036.2,783.6,1049,783.6z"/>
	<path fill="white" d="M1049,880.9c12.8,0,23.1-10.3,23.1-23.2c0-12.8-10.3-23.2-23.1-23.2c-12.8,0-23.2,10.4-23.2,23.2
		C1025.8,870.6,1036.2,880.9,1049,880.9z"/>
	<path fill="white" d="M1049,589.1c12.8,0,23.1-10.3,23.1-23.2c0-12.8-10.3-23.2-23.1-23.2c-12.8,0-23.2,10.4-23.2,23.2
		C1025.8,578.7,1036.2,589.1,1049,589.1z"/>
	<path fill="white" d="M1072.1,1246.9c0-12.8-10.3-23.1-23.1-23.1c-12.8,0-23.2,10.3-23.2,23.1c0,4.6,1.7,8.7,4,12.3
		c11.1,1.8,22.1,3.7,33.1,5.7C1068.4,1260.7,1072.1,1254.4,1072.1,1246.9z"/>
	<path fill="white" d="M919.3,783.6c12.8,0,23.2-10.3,23.2-23.2c0-12.8-10.3-23.1-23.2-23.1c-12.8,0-23.2,10.4-23.2,23.1
		C896.1,773.3,906.5,783.6,919.3,783.6z"/>
	<path fill="white" d="M919.3,1223.8c-11.3,0-20.4,8.3-22.3,19.1c15.2,1.3,30.4,2.8,45.4,4.4c0-0.1,0.1-0.2,0.1-0.4
		C942.4,1234.1,932.1,1223.8,919.3,1223.8z"/>
	<path fill="white" d="M919.3,491.8c12.8,0,23.2-10.5,23.2-23.2c0-12.8-10.3-23.2-23.2-23.2c-12.8,0-23.2,10.3-23.2,23.2
		C896.1,481.4,906.5,491.8,919.3,491.8z"/>
	<path fill="white" d="M919.3,589.1c12.8,0,23.2-10.3,23.2-23.2c0-12.8-10.3-23.2-23.2-23.2c-12.8,0-23.2,10.4-23.2,23.2
		C896.1,578.7,906.5,589.1,919.3,589.1z"/>
	<path fill="white" d="M919.3,686.3c12.8,0,23.2-10.3,23.2-23.2c0-12.8-10.3-23.2-23.2-23.2c-12.8,0-23.2,10.4-23.2,23.2
		C896.1,676,906.5,686.3,919.3,686.3z"/>
	<path fill="white" d="M1049,1075.5c12.8,0,23.1-10.3,23.1-23.2c0-12.8-10.3-23.2-23.1-23.2c-12.8,0-23.2,10.4-23.2,23.2
		C1025.8,1065.2,1036.2,1075.5,1049,1075.5z"/>
	<path fill="white" d="M1049,978.2c12.8,0,23.1-10.4,23.1-23.2c0-12.8-10.3-23.2-23.1-23.2c-12.8,0-23.2,10.4-23.2,23.2
		C1025.8,967.8,1036.2,978.2,1049,978.2z"/>
	<path fill="white" d="M1049,1172.8c12.8,0,23.1-10.4,23.1-23.1c0-12.8-10.3-23.2-23.1-23.2c-12.8,0-23.2,10.4-23.2,23.2
		C1025.8,1162.4,1036.2,1172.8,1049,1172.8z"/>
	<path fill="white" d="M677.8,292c12.8,0,23.2-10.4,23.2-23.2c0-12.8-10.3-23.2-23.2-23.2c-12.8,0-23.2,10.4-23.2,23.2
		C654.6,281.5,665,292,677.8,292z"/>
	<path fill="white" d="M438.4,576.4c12.8,0,23.2-10.3,23.2-23.2c0-12.8-10.4-23.2-23.2-23.2c-12.8,0-23.2,10.3-23.2,23.2
		C415.2,566.1,425.6,576.4,438.4,576.4z"/>
	<path fill="white" d="M438.4,673.7c12.8,0,23.2-10.4,23.2-23.2c0-12.8-10.4-23.2-23.2-23.2c-12.8,0-23.2,10.4-23.2,23.2
		C415.2,663.4,425.6,673.7,438.4,673.7z"/>
	<path fill="white" d="M568.1,1160.2c12.8,0,23.1-10.4,23.1-23.2c0-12.7-10.3-23.1-23.1-23.1c-12.8,0-23.2,10.4-23.2,23.1
		C544.9,1149.8,555.2,1160.2,568.1,1160.2z"/>
	<path fill="white" d="M568.1,965.6c12.8,0,23.1-10.4,23.1-23.2c0-12.8-10.3-23.2-23.1-23.2c-12.8,0-23.2,10.4-23.2,23.2
		C544.9,955.2,555.2,965.6,568.1,965.6z"/>
	<path fill="white" d="M568.1,868.3c12.8,0,23.1-10.3,23.1-23.1c0-12.8-10.3-23.2-23.1-23.2c-12.8,0-23.2,10.4-23.2,23.2
		C544.9,858,555.2,868.3,568.1,868.3z"/>
	<path fill="white" d="M568.1,1062.9c12.8,0,23.1-10.3,23.1-23.1c0-12.8-10.3-23.2-23.1-23.2c-12.8,0-23.2,10.3-23.2,23.2
		C544.9,1052.6,555.2,1062.9,568.1,1062.9z"/>
	<path fill="white" d="M568.1,771c12.8,0,23.1-10.4,23.1-23.2c0-12.8-10.3-23.2-23.1-23.2c-12.8,0-23.2,10.4-23.2,23.2
		C544.9,760.6,555.2,771,568.1,771z"/>
	<path fill="white" d="M438.4,771c12.8,0,23.2-10.4,23.2-23.2c0-12.8-10.4-23.2-23.2-23.2c-12.8,0-23.2,10.4-23.2,23.2
		C415.2,760.6,425.6,771,438.4,771z"/>
	<path fill="white" d="M591.2,1234.3c0-12.8-10.3-23.2-23.1-23.2c-12.8,0-23.2,10.3-23.2,23.2c0,5.2,2.1,9.8,5,13.7
		c12.9-1.5,25.9-2.7,38.9-3.9C590.2,1241.1,591.2,1237.9,591.2,1234.3z"/>
	<path fill="white" d="M438.4,1257.5c12.8,0,23.2-10.4,23.2-23.2c0-12.8-10.4-23.2-23.2-23.2c-12.8,0-23.2,10.3-23.2,23.2
		C415.2,1247.1,425.6,1257.5,438.4,1257.5z"/>
	<path fill="white" d="M438.4,965.6c12.8,0,23.2-10.4,23.2-23.2c0-12.8-10.4-23.2-23.2-23.2c-12.8,0-23.2,10.4-23.2,23.2
		C415.2,955.2,425.6,965.6,438.4,965.6z"/>
	<path fill="white" d="M438.4,1160.2c12.8,0,23.2-10.4,23.2-23.2c0-12.7-10.4-23.1-23.2-23.1c-12.8,0-23.2,10.4-23.2,23.1
		C415.2,1149.8,425.6,1160.2,438.4,1160.2z"/>
	<path fill="white" d="M438.4,868.3c12.8,0,23.2-10.3,23.2-23.1c0-12.8-10.4-23.2-23.2-23.2c-12.8,0-23.2,10.4-23.2,23.2
		C415.2,858,425.6,868.3,438.4,868.3z"/>
	<path fill="white" d="M438.4,1062.9c12.8,0,23.2-10.3,23.2-23.1c0-12.8-10.4-23.2-23.2-23.2c-12.8,0-23.2,10.3-23.2,23.2
		C415.2,1052.6,425.6,1062.9,438.4,1062.9z"/>
	<path fill="white" d="M677.8,389.2c12.8,0,23.2-10.3,23.2-23.1c0-12.8-10.3-23.2-23.2-23.2c-12.8,0-23.2,10.4-23.2,23.2
		C654.6,378.9,665,389.2,677.8,389.2z"/>
	<path fill="white" d="M677.8,681.1c12.8,0,23.2-10.3,23.2-23.2c0-12.8-10.3-23.2-23.2-23.2c-12.8,0-23.2,10.4-23.2,23.2
		C654.6,670.7,665,681.1,677.8,681.1z"/>
	<path fill="white" d="M677.8,583.8c12.8,0,23.2-10.3,23.2-23.2c0-12.8-10.3-23.1-23.2-23.1c-12.8,0-23.2,10.3-23.2,23.1
		C654.6,573.5,665,583.8,677.8,583.8z"/>
	<path fill="white" d="M677.8,778.4c12.8,0,23.2-10.4,23.2-23.2c0-12.7-10.3-23.1-23.2-23.1c-12.8,0-23.2,10.4-23.2,23.1
		C654.6,768,665,778.4,677.8,778.4z"/>
	<path fill="white" d="M807.5,1167.5c12.8,0,23.1-10.3,23.1-23.2c0-12.7-10.3-23.1-23.1-23.1c-12.8,0-23.2,10.4-23.2,23.1
		C784.3,1157.1,794.7,1167.5,807.5,1167.5z"/>
	<path fill="white" d="M677.8,486.5c12.8,0,23.2-10.4,23.2-23.2c0-12.8-10.3-23.2-23.2-23.2c-12.8,0-23.2,10.4-23.2,23.2
		C654.6,476.1,665,486.5,677.8,486.5z"/>
	<path fill="white" d="M677.8,875.7c12.8,0,23.2-10.4,23.2-23.2c0-12.8-10.3-23.2-23.2-23.2c-12.8,0-23.2,10.3-23.2,23.2
		C654.6,865.3,665,875.7,677.8,875.7z"/>
	<path fill="white" d="M677.8,972.9c12.8,0,23.2-10.4,23.2-23.2c0-12.8-10.3-23.2-23.2-23.2c-12.8,0-23.2,10.4-23.2,23.2
		C654.6,962.6,665,972.9,677.8,972.9z"/>
	<path fill="white" d="M677.8,194.6c12.8,0,23.2-10.4,23.2-23.2c0-12.8-10.3-23.2-23.2-23.2c-12.8,0-23.2,10.4-23.2,23.2
		C654.6,184.3,665,194.6,677.8,194.6z"/>
	<path fill="white" d="M568.1,673.7c12.8,0,23.1-10.4,23.1-23.2c0-12.8-10.3-23.2-23.1-23.2c-12.8,0-23.2,10.4-23.2,23.2
		C544.9,663.4,555.2,673.7,568.1,673.7z"/>
	<path fill="white" d="M677.8,1167.5c12.8,0,23.2-10.3,23.2-23.2c0-12.7-10.3-23.1-23.2-23.1c-12.8,0-23.2,10.4-23.2,23.1
		C654.6,1157.1,665,1167.5,677.8,1167.5z"/>
	<path fill="white" d="M677.8,1070.3c12.8,0,23.2-10.3,23.2-23.2c0-12.8-10.3-23.2-23.2-23.2c-12.8,0-23.2,10.4-23.2,23.2
		C654.6,1059.9,665,1070.3,677.8,1070.3z"/>
	<path fill="#E61D73" d="M677.8,1218.5c11.3,0,20.3,8.3,22.3,19c16.5-0.5,33-0.7,49.7-0.7c11.9,0,23.7,0.3,35.5,0.5
		c2.1-10.6,11-18.8,22.3-18.8c11.7,0,21,8.9,22.5,20.2c10.9,0.5,21.9,1,32.7,1.7l-5.3-1016.2L638,88.1v1152.4c0-0.4,11.7-0.8,18-1.2
		C657.3,1227.7,665.8,1218.5,677.8,1218.5z M807.5,245.6c12.8,0,23.1,10.4,23.1,23.2c0,12.8-10.3,23.2-23.1,23.2
		c-12.8,0-23.2-10.4-23.2-23.2C784.3,256,794.7,245.6,807.5,245.6z M807.5,342.9c12.8,0,23.1,10.4,23.1,23.2
		c0,12.8-10.3,23.1-23.1,23.1c-12.8,0-23.2-10.3-23.2-23.1C784.3,353.3,794.7,342.9,807.5,342.9z M807.5,440.1
		c12.8,0,23.1,10.4,23.1,23.2c0,12.8-10.3,23.2-23.1,23.2c-12.8,0-23.2-10.4-23.2-23.2C784.3,450.5,794.7,440.1,807.5,440.1z
		 M807.5,537.5c12.8,0,23.1,10.3,23.1,23.1c0,12.8-10.3,23.2-23.1,23.2c-12.8,0-23.2-10.3-23.2-23.2
		C784.3,547.8,794.7,537.5,807.5,537.5z M807.5,634.8c12.8,0,23.1,10.4,23.1,23.2c0,12.8-10.3,23.2-23.1,23.2
		c-12.8,0-23.2-10.3-23.2-23.2C784.3,645.1,794.7,634.8,807.5,634.8z M807.5,732c12.8,0,23.1,10.4,23.1,23.1
		c0,12.8-10.3,23.2-23.1,23.2c-12.8,0-23.2-10.4-23.2-23.2C784.3,742.4,794.7,732,807.5,732z M807.5,829.3
		c12.8,0,23.1,10.3,23.1,23.2c0,12.8-10.3,23.2-23.1,23.2c-12.8,0-23.2-10.4-23.2-23.2C784.3,839.7,794.7,829.3,807.5,829.3z
		 M807.5,926.6c12.8,0,23.1,10.4,23.1,23.2c0,12.8-10.3,23.2-23.1,23.2c-12.8,0-23.2-10.4-23.2-23.2
		C784.3,937,794.7,926.6,807.5,926.6z M807.5,1023.9c12.8,0,23.1,10.4,23.1,23.2c0,12.8-10.3,23.2-23.1,23.2
		c-12.8,0-23.2-10.3-23.2-23.2C784.3,1034.3,794.7,1023.9,807.5,1023.9z M807.5,1121.2c12.8,0,23.1,10.4,23.1,23.1
		c0,12.8-10.3,23.2-23.1,23.2c-12.8,0-23.2-10.3-23.2-23.2C784.3,1131.6,794.7,1121.2,807.5,1121.2z M677.8,148.3
		c12.8,0,23.2,10.4,23.2,23.2c0,12.8-10.3,23.2-23.2,23.2c-12.8,0-23.2-10.4-23.2-23.2C654.6,158.7,665,148.3,677.8,148.3z
		 M677.8,245.6c12.8,0,23.2,10.4,23.2,23.2c0,12.8-10.3,23.2-23.2,23.2c-12.8,0-23.2-10.4-23.2-23.2
		C654.6,256,665,245.6,677.8,245.6z M677.8,342.9c12.8,0,23.2,10.4,23.2,23.2c0,12.8-10.3,23.1-23.2,23.1
		c-12.8,0-23.2-10.3-23.2-23.1C654.6,353.3,665,342.9,677.8,342.9z M677.8,440.1c12.8,0,23.2,10.4,23.2,23.2
		c0,12.8-10.3,23.2-23.2,23.2c-12.8,0-23.2-10.4-23.2-23.2C654.6,450.5,665,440.1,677.8,440.1z M677.8,537.5
		c12.8,0,23.2,10.3,23.2,23.1c0,12.8-10.3,23.2-23.2,23.2c-12.8,0-23.2-10.3-23.2-23.2C654.6,547.8,665,537.5,677.8,537.5z
		 M677.8,634.8c12.8,0,23.2,10.4,23.2,23.2c0,12.8-10.3,23.2-23.2,23.2c-12.8,0-23.2-10.3-23.2-23.2
		C654.6,645.1,665,634.8,677.8,634.8z M677.8,732c12.8,0,23.2,10.4,23.2,23.1c0,12.8-10.3,23.2-23.2,23.2
		c-12.8,0-23.2-10.4-23.2-23.2C654.6,742.4,665,732,677.8,732z M677.8,829.3c12.8,0,23.2,10.3,23.2,23.2c0,12.8-10.3,23.2-23.2,23.2
		c-12.8,0-23.2-10.4-23.2-23.2C654.6,839.7,665,829.3,677.8,829.3z M677.8,926.6c12.8,0,23.2,10.4,23.2,23.2
		c0,12.8-10.3,23.2-23.2,23.2c-12.8,0-23.2-10.4-23.2-23.2C654.6,937,665,926.6,677.8,926.6z M677.8,1023.9
		c12.8,0,23.2,10.4,23.2,23.2c0,12.8-10.3,23.2-23.2,23.2c-12.8,0-23.2-10.3-23.2-23.2C654.6,1034.3,665,1023.9,677.8,1023.9z
		 M677.8,1121.2c12.8,0,23.2,10.4,23.2,23.1c0,12.8-10.3,23.2-23.2,23.2c-12.8,0-23.2-10.3-23.2-23.2
		C654.6,1131.6,665,1121.2,677.8,1121.2z"/>
	<path fill="#6FC8BD" d="M919.3,1223.8c12.8,0,23.2,10.3,23.2,23.1c0,0.1-0.1,0.2-0.1,0.4c29.5,3.2,58.7,7.3,87.5,11.9
		c-2.3-3.6-4-7.7-4-12.3c0-12.8,10.3-23.1,23.2-23.1c12.8,0,23.1,10.3,23.1,23.1c0,7.5-3.7,13.8-9.2,18c13.3,2.4,26.6,5,39.7,7.7
		l-6.4-751.3L874,385.3v856.2c19,0.5,14.7,0.8,21.1,1.4C897.1,1232.1,907.9,1223.8,919.3,1223.8z M1049,542.7
		c12.8,0,23.1,10.4,23.1,23.2c0,12.8-10.3,23.2-23.1,23.2c-12.8,0-23.2-10.3-23.2-23.2C1025.8,553.1,1036.2,542.7,1049,542.7z
		 M1049,640c12.8,0,23.1,10.4,23.1,23.2c0,12.8-10.3,23.2-23.1,23.2c-12.8,0-23.2-10.3-23.2-23.2C1025.8,650.4,1036.2,640,1049,640z
		 M1049,737.3c12.8,0,23.1,10.4,23.1,23.1c0,12.8-10.3,23.2-23.1,23.2c-12.8,0-23.2-10.3-23.2-23.2
		C1025.8,747.7,1036.2,737.3,1049,737.3z M1049,834.6c12.8,0,23.1,10.4,23.1,23.2c0,12.8-10.3,23.2-23.1,23.2
		c-12.8,0-23.2-10.3-23.2-23.2C1025.8,845,1036.2,834.6,1049,834.6z M1049,931.9c12.8,0,23.1,10.4,23.1,23.2
		c0,12.8-10.3,23.2-23.1,23.2c-12.8,0-23.2-10.4-23.2-23.2C1025.8,942.3,1036.2,931.9,1049,931.9z M1049,1029.2
		c12.8,0,23.1,10.4,23.1,23.2c0,12.8-10.3,23.2-23.1,23.2c-12.8,0-23.2-10.3-23.2-23.2C1025.8,1039.6,1036.2,1029.2,1049,1029.2z
		 M1049,1126.5c12.8,0,23.1,10.4,23.1,23.2c0,12.7-10.3,23.1-23.1,23.1c-12.8,0-23.2-10.4-23.2-23.1
		C1025.8,1136.9,1036.2,1126.5,1049,1126.5z M919.3,445.5c12.8,0,23.2,10.3,23.2,23.2c0,12.7-10.3,23.2-23.2,23.2
		c-12.8,0-23.2-10.5-23.2-23.2C896.1,455.8,906.5,445.5,919.3,445.5z M919.3,542.7c12.8,0,23.2,10.4,23.2,23.2
		c0,12.8-10.3,23.2-23.2,23.2c-12.8,0-23.2-10.3-23.2-23.2C896.1,553.1,906.5,542.7,919.3,542.7z M919.3,640
		c12.8,0,23.2,10.4,23.2,23.2c0,12.8-10.3,23.2-23.2,23.2c-12.8,0-23.2-10.3-23.2-23.2C896.1,650.4,906.5,640,919.3,640z
		 M919.3,737.3c12.8,0,23.2,10.4,23.2,23.1c0,12.8-10.3,23.2-23.2,23.2c-12.8,0-23.2-10.3-23.2-23.2
		C896.1,747.7,906.5,737.3,919.3,737.3z M919.3,834.6c12.8,0,23.2,10.4,23.2,23.2c0,12.8-10.3,23.2-23.2,23.2
		c-12.8,0-23.2-10.3-23.2-23.2C896.1,845,906.5,834.6,919.3,834.6z M919.3,931.9c12.8,0,23.2,10.4,23.2,23.2
		c0,12.8-10.3,23.2-23.2,23.2c-12.8,0-23.2-10.4-23.2-23.2C896.1,942.3,906.5,931.9,919.3,931.9z M919.3,1029.2
		c12.8,0,23.2,10.4,23.2,23.2c0,12.8-10.3,23.2-23.2,23.2c-12.8,0-23.2-10.3-23.2-23.2C896.1,1039.6,906.5,1029.2,919.3,1029.2z
		 M919.3,1126.5c12.8,0,23.2,10.4,23.2,23.2c0,12.7-10.3,23.1-23.2,23.1c-12.8,0-23.2-10.4-23.2-23.1
		C896.1,1136.9,906.5,1126.5,919.3,1126.5z"/>
	<path fill="#F09721" d="M1102.6,1273.6c-13.1-2.7-26.4-5.8-39.7-8.2c-11-2-22-4.2-33.1-6c-28.8-4.7-58-8.8-87.5-12.1
		c-15.1-1.6-30.2-3.2-45.4-4.5c-6.4-0.5-12.9-0.9-19.3-1.4c-4.9-0.4-9.9-0.7-14.8-1.1c-10.9-0.7-21.8-1.2-32.7-1.7
		c-14.9-0.7-29.8-1.2-44.8-1.5c-11.8-0.2-23.6-0.5-35.5-0.5c-16.6,0-33.2,0.2-49.7,0.7c-15.1,0.4-30.1,1.1-45,1.9
		c-6.3,0.3-12.7,0.8-19,1.2c-5,0.3-10.1,0.7-15.1,1.1l-0.7-635.5L403,469.9v802.8C266,1300.8,136.2,1344,24.7,1403h49.3
		c202.9-79,432.5-107.3,675.6-107.3c243.2,0,472.8,28.3,675.6,107.3h49.3C1363.2,1344,1237.7,1301.7,1102.6,1273.6z M568.1,627.4
		c12.8,0,23.1,10.4,23.1,23.2c0,12.8-10.3,23.2-23.1,23.2c-12.8,0-23.2-10.4-23.2-23.2C544.9,637.8,555.2,627.4,568.1,627.4z
		 M568.1,724.7c12.8,0,23.1,10.4,23.1,23.2c0,12.8-10.3,23.2-23.1,23.2c-12.8,0-23.2-10.4-23.2-23.2
		C544.9,735.1,555.2,724.7,568.1,724.7z M568.1,822c12.8,0,23.1,10.4,23.1,23.2c0,12.8-10.3,23.1-23.1,23.1
		c-12.8,0-23.2-10.3-23.2-23.1C544.9,832.4,555.2,822,568.1,822z M568.1,919.2c12.8,0,23.1,10.4,23.1,23.2
		c0,12.8-10.3,23.2-23.1,23.2c-12.8,0-23.2-10.4-23.2-23.2C544.9,929.6,555.2,919.2,568.1,919.2z M568.1,1016.6
		c12.8,0,23.1,10.3,23.1,23.2c0,12.8-10.3,23.1-23.1,23.1c-12.8,0-23.2-10.3-23.2-23.1C544.9,1026.9,555.2,1016.6,568.1,1016.6z
		 M568.1,1113.9c12.8,0,23.1,10.4,23.1,23.1c0,12.8-10.3,23.2-23.1,23.2c-12.8,0-23.2-10.4-23.2-23.2
		C544.9,1124.2,555.2,1113.9,568.1,1113.9z M438.4,530.1c12.8,0,23.2,10.3,23.2,23.2c0,12.8-10.4,23.2-23.2,23.2
		c-12.8,0-23.2-10.3-23.2-23.2C415.2,540.4,425.6,530.1,438.4,530.1z M438.4,627.4c12.8,0,23.2,10.4,23.2,23.2
		c0,12.8-10.4,23.2-23.2,23.2c-12.8,0-23.2-10.4-23.2-23.2C415.2,637.8,425.6,627.4,438.4,627.4z M438.4,724.7
		c12.8,0,23.2,10.4,23.2,23.2c0,12.8-10.4,23.2-23.2,23.2c-12.8,0-23.2-10.4-23.2-23.2C415.2,735.1,425.6,724.7,438.4,724.7z
		 M438.4,822c12.8,0,23.2,10.4,23.2,23.2c0,12.8-10.4,23.1-23.2,23.1c-12.8,0-23.2-10.3-23.2-23.1C415.2,832.4,425.6,822,438.4,822z
		 M438.4,919.2c12.8,0,23.2,10.4,23.2,23.2c0,12.8-10.4,23.2-23.2,23.2c-12.8,0-23.2-10.4-23.2-23.2
		C415.2,929.6,425.6,919.2,438.4,919.2z M438.4,1016.6c12.8,0,23.2,10.3,23.2,23.2c0,12.8-10.4,23.1-23.2,23.1
		c-12.8,0-23.2-10.3-23.2-23.1C415.2,1026.9,425.6,1016.6,438.4,1016.6z M438.4,1113.9c12.8,0,23.2,10.4,23.2,23.1
		c0,12.8-10.4,23.2-23.2,23.2c-12.8,0-23.2-10.4-23.2-23.2C415.2,1124.2,425.6,1113.9,438.4,1113.9z M438.4,1211.1
		c12.8,0,23.2,10.3,23.2,23.2c0,12.8-10.4,23.2-23.2,23.2c-12.8,0-23.2-10.4-23.2-23.2C415.2,1221.5,425.6,1211.1,438.4,1211.1z
		 M544.9,1234.3c0-12.8,10.3-23.2,23.2-23.2c12.8,0,23.1,10.3,23.1,23.2c0,3.5-0.9,6.8-2.4,9.8c-13,1.2-26,2.4-38.9,3.9
		C547,1244.1,544.9,1239.5,544.9,1234.3z"/>
</g>
</svg>
